<svg width="60" height="11" xmlns="http://www.w3.org/2000/svg"><path d="M6.456.343L7.687 2.95a.59.59 0 00.443.336l2.753.419c.482.073.675.692.326 1.048l-1.992 2.03a.632.632 0 00-.17.544l.47 2.867c.083.502-.42.885-.852.648L6.203 9.49a.566.566 0 00-.547 0l-2.463 1.353c-.43.237-.935-.146-.852-.648l.47-2.867a.632.632 0 00-.17-.544L.65 4.754C.3 4.398.493 3.779.976 3.706l2.753-.419a.59.59 0 00.442-.336L5.402.343a.577.577 0 011.054 0zm12 0l1.231 2.608a.59.59 0 00.443.336l2.753.419c.482.073.675.692.326 1.048l-1.992 2.03a.632.632 0 00-.17.544l.47 2.867c.083.502-.42.885-.852.648L18.203 9.49a.566.566 0 00-.547 0l-2.463 1.353c-.43.237-.935-.146-.852-.648l.47-2.867a.632.632 0 00-.17-.544l-1.991-2.03c-.35-.356-.157-.975.326-1.048l2.753-.419a.59.59 0 00.442-.336L17.402.343a.577.577 0 011.054 0zm12 0l1.231 2.608a.59.59 0 00.443.336l2.753.419c.482.073.674.692.326 1.048l-1.992 2.03a.632.632 0 00-.17.544l.47 2.867c.083.502-.42.885-.852.648L30.203 9.49a.566.566 0 00-.547 0l-2.463 1.353c-.43.237-.935-.146-.852-.648l.47-2.867a.632.632 0 00-.17-.544l-1.991-2.03c-.35-.356-.157-.975.326-1.048l2.753-.419a.59.59 0 00.442-.336L29.402.343a.577.577 0 011.054 0zm12 0l1.231 2.608a.59.59 0 00.443.336l2.753.419c.482.073.674.692.326 1.048l-1.992 2.03a.632.632 0 00-.17.544l.47 2.867c.083.502-.42.885-.852.648L42.203 9.49a.566.566 0 00-.547 0l-2.463 1.353c-.43.237-.935-.146-.852-.648l.47-2.867a.632.632 0 00-.17-.544l-1.991-2.03c-.35-.356-.157-.975.326-1.048l2.753-.419a.59.59 0 00.442-.336L41.402.343a.577.577 0 011.054 0zm12 0l1.231 2.608a.59.59 0 00.443.336l2.753.419c.482.073.674.692.326 1.048l-1.992 2.03a.632.632 0 00-.17.544l.47 2.867c.083.502-.42.885-.852.648L54.203 9.49a.566.566 0 00-.547 0l-2.463 1.353c-.43.237-.935-.146-.852-.648l.47-2.867a.632.632 0 00-.17-.544l-1.991-2.03c-.35-.356-.157-.975.326-1.048l2.753-.419a.59.59 0 00.442-.336L53.402.343a.577.577 0 011.054 0z" fill="#D9D9E0"/></svg>